<svg width="1168" height="1642" viewBox="0 0 1168 1642" fill="none" xmlns="http://www.w3.org/2000/svg">
<path d="M362.698 141.306C393.704 134.778 375.612 137.489 356.708 133.519C307.845 123.258 264.654 96.7857 222.536 71.2245C186.272 49.2163 151.534 30.0637 109.328 22.7067C85.1638 18.4947 42.2993 8.90104 18.8809 20.6102C-13.3922 36.7468 124.619 252.941 133.287 269.489C205.334 407.033 274.185 545.766 354.912 678.595C416.074 779.234 487.89 873.293 542.094 978.088C547.291 988.135 569.251 1056.37 583.724 1044.58C641.015 997.894 702.753 955.571 768.211 921.184C858.108 873.96 954.833 835.236 1051.83 805.281C1083.35 795.546 1118.41 789.476 1148.57 775.631C1168.22 766.606 1118.17 755.392 1115.02 754.067C943.531 681.915 802.427 555.704 659.196 439.9C632.855 418.603 647.667 419.999 672.374 428.519C762.516 459.603 845.068 519.349 920.353 576.169C999 635.525 1104.65 710.485 1140.18 807.377C1176.53 906.507 1081.49 1011.33 1028.77 1084.11C938.824 1208.28 849.169 1331.58 769.409 1462.67C744.332 1503.88 718.58 1544.95 694.836 1586.96C693.497 1589.32 662.122 1637.49 689.744 1626.19C754.256 1599.8 816.215 1546.21 861.653 1494.71C873.622 1481.15 952.822 1390.82 930.536 1366.23C923.923 1358.93 905.492 1356.13 897.293 1353.35C871.754 1344.7 846.953 1334.18 822.12 1323.7C737.02 1287.81 640.96 1255.45 566.353 1199.71C506.169 1154.75 410.435 1007.54 483.094 936.458C531.555 889.051 615.699 868.261 649.612 808.575C675.978 762.172 643.269 775.072 612.176 795.098C555.983 831.29 508.624 881.528 459.135 925.976C396.282 982.427 332.238 1037.22 271.054 1095.49" stroke="white" stroke-width="28" stroke-linecap="round"/>
</svg>
